<?xml version="1.0" encoding="UTF-8" standalone="no"?>
<!-- Created with Inkscape (http://www.inkscape.org/) -->

<svg
   xmlns:dc="http://purl.org/dc/elements/1.1/"
   xmlns:cc="http://creativecommons.org/ns#"
   xmlns:rdf="http://www.w3.org/1999/02/22-rdf-syntax-ns#"
   xmlns:svg="http://www.w3.org/2000/svg"
   xmlns="http://www.w3.org/2000/svg"
   xmlns:sodipodi="http://sodipodi.sourceforge.net/DTD/sodipodi-0.dtd"
   xmlns:inkscape="http://www.inkscape.org/namespaces/inkscape"
   version="1.1"
   id="svg2"
   xml:space="preserve"
   width="500"
   height="500"
   viewBox="0 0 500 500"
   sodipodi:docname="Logo - R00t K1ng5 - Dark.svg"
   inkscape:version="0.92.4 5da689c313, 2019-01-14"><metadata
     id="metadata8"><rdf:RDF><cc:Work
         rdf:about=""><dc:format>image/svg+xml</dc:format><dc:type
           rdf:resource="http://purl.org/dc/dcmitype/StillImage" /><dc:title></dc:title></cc:Work></rdf:RDF></metadata><defs
     id="defs6"><clipPath
       clipPathUnits="userSpaceOnUse"
       id="clipPath18"><path
         d="M 0,0 H 1562.5 V 1593.75 H 0 Z"
         id="path16"
         inkscape:connector-curvature="0"
         style="clip-rule:evenodd" /></clipPath><clipPath
       clipPathUnits="userSpaceOnUse"
       id="clipPath30"><path
         d="M 0,0 H 1562.5 V 1562.5 H 0 Z"
         id="path28"
         inkscape:connector-curvature="0"
         style="clip-rule:evenodd" /></clipPath><clipPath
       clipPathUnits="userSpaceOnUse"
       id="clipPath42"><path
         d="M 518.3111,266.72217 H 1049.561 V 622.9292 H 518.3111 Z"
         id="path40"
         inkscape:connector-curvature="0"
         style="clip-rule:evenodd" /></clipPath><clipPath
       clipPathUnits="userSpaceOnUse"
       id="clipPath54"><path
         d="M 0,0 H 1562.5 V 1562.5 H 0 Z"
         id="path52"
         inkscape:connector-curvature="0"
         style="clip-rule:evenodd" /></clipPath></defs><sodipodi:namedview
     pagecolor="#ffffff"
     bordercolor="#666666"
     borderopacity="1"
     objecttolerance="10"
     gridtolerance="10"
     guidetolerance="10"
     inkscape:pageopacity="0"
     inkscape:pageshadow="2"
     inkscape:window-width="1920"
     inkscape:window-height="1027"
     id="namedview4"
     showgrid="false"
     inkscape:zoom="0.472"
     inkscape:cx="250"
     inkscape:cy="250"
     inkscape:window-x="0"
     inkscape:window-y="24"
     inkscape:window-maximized="1"
     inkscape:current-layer="g10" /><g
     id="g10"
     inkscape:groupmode="layer"
     inkscape:label="Logo - R00t K1ng5"
     transform="matrix(0.31999998,0,0,0.31999998,0,9.434666e-6)"><g
       id="g36"><g
         id="g38"
         clip-path="url(#clipPath42)"><g
           id="g44"
           transform="matrix(1.9822396,0,0,1.9791666,518.81152,266.67923)"><path
             d="m 257,56.599998 c 0,0.700001 0,1.5 -0.20001,2.200001 l -16.5,66.000001 c -0.80001,3.30001 -3.80001,5.7 -7.2,5.7 l -99,0.5 H 35 c -3.4,0 -6.4,-2.3 -7.299999,-5.7 L 11.2,59.099998 C 11,58.299999 11,57.5 11,56.799999 c -6.4000001,-2 -11,-8 -11,-15 C 0,33.099998 7.0999999,26 15.8,26 24.5,26 31.6,33.099998 31.6,41.799999 31.6,46.700001 29.4,51.099998 25.799999,54 L 46.5,74.800003 C 51.599998,80 58.900002,83 66.300003,83 75.100006,83 83.400002,78.800003 88.700005,71.900002 l 33.900005,-45 c -2.9,-2.8 -4.6,-6.8 -4.6,-11.100001 C 118,7.0999999 125.1,0 133.8,0 c 8.7,0 15.80001,7.0999999 15.80001,15.8 0,4.2 -1.7,7.999999 -4.4,10.900001 l 33.7,45.100002 c 5.3,7 13.60001,11.199997 22.39999,11.199997 7.5,0 14.5,-2.900002 19.80001,-8.199997 L 241.89999,54 C 238.29999,51.099998 236,46.700001 236,41.700001 236,33 243.10001,25.900002 251.8,25.900002 c 8.7,0 15.80001,7.099998 15.80001,15.799999 C 267.5,48.599998 263.10001,54.400002 257,56.599998 Z M 238.7,154.5 c 0,-4.10001 -3.4,-7.5 -7.5,-7.5 H 37.199997 c -4.099999,0 -7.5,3.39999 -7.5,7.5 v 18 c 0,4.10001 3.400001,7.5 7.5,7.5 H 231.2 c 4.1,0 7.5,-3.39999 7.5,-7.5 z"
             style="fill:#ffbd4a;fill-opacity:1;fill-rule:nonzero;stroke:none"
             id="path46"
             inkscape:connector-curvature="0" /></g></g></g><g
       id="g48"><g
         id="g50"
         clip-path="url(#clipPath54)"><g
           id="g56"
           transform="matrix(3.125,0,0,3.125,264.31125,452.10339)"><text
             transform="translate(94.515625,194)"
             style="font-variant:normal;font-weight:bold;font-size:193.19999695px;font-family:Kollektif;-inkscape-font-specification:Kollektif-Bold;writing-mode:lr-tb;fill:#ffffff;fill-opacity:1;fill-rule:nonzero;stroke:none"
             id="text60"><tspan
               x="0"
               y="0"
               id="tspan58">#</tspan></text>
</g></g></g></g></svg>