<?xml version="1.0" encoding="UTF-8" standalone="no"?>
<!-- Generator: Adobe Illustrator 19.0.0, SVG Export Plug-In . SVG Version: 6.00 Build 0)  -->

<svg
   xmlns:dc="http://purl.org/dc/elements/1.1/"
   xmlns:cc="http://creativecommons.org/ns#"
   xmlns:rdf="http://www.w3.org/1999/02/22-rdf-syntax-ns#"
   xmlns:svg="http://www.w3.org/2000/svg"
   xmlns="http://www.w3.org/2000/svg"
   xmlns:sodipodi="http://sodipodi.sourceforge.net/DTD/sodipodi-0.dtd"
   xmlns:inkscape="http://www.inkscape.org/namespaces/inkscape"
   version="1.1"
   id="Layer_1"
   x="0px"
   y="0px"
   viewBox="0 0 512 512"
   style="enable-background:new 0 0 512 512;"
   xml:space="preserve"
   sodipodi:docname="about.svg"
   inkscape:version="0.92.4 5da689c313, 2019-01-14"><metadata
   id="metadata61"><rdf:RDF><cc:Work
       rdf:about=""><dc:format>image/svg+xml</dc:format><dc:type
         rdf:resource="http://purl.org/dc/dcmitype/StillImage" /></cc:Work></rdf:RDF></metadata><defs
   id="defs59" /><sodipodi:namedview
   pagecolor="#ffffff"
   bordercolor="#666666"
   borderopacity="1"
   objecttolerance="10"
   gridtolerance="10"
   guidetolerance="10"
   inkscape:pageopacity="0"
   inkscape:pageshadow="2"
   inkscape:window-width="1920"
   inkscape:window-height="1027"
   id="namedview57"
   showgrid="false"
   inkscape:zoom="0.4609375"
   inkscape:cx="256"
   inkscape:cy="256"
   inkscape:window-x="0"
   inkscape:window-y="24"
   inkscape:window-maximized="1"
   inkscape:current-layer="Layer_1" />
<g
   id="g8"
   style="fill:#ffbd4a;fill-opacity:1">
	<path
   style="fill:#ffbd4a;fill-opacity:1"
   d="M282.427,356.122h-52.854c-7.718,0-13.975-6.258-13.975-13.975c0-7.717,6.257-13.975,13.975-13.975   h52.854c7.717,0,13.975,6.258,13.975,13.975C296.402,349.864,290.144,356.122,282.427,356.122z"
   id="path2" />
	<path
   style="fill:#ffbd4a;fill-opacity:1"
   d="M51.67,360.083H29.644c-8.993,0-17.393-4.011-23.048-11.005c-5.653-6.995-7.815-16.048-5.931-24.841   l37.773-176.282c3.611-23.591,22.652-67.374,69.657-67.374c38.529,0,69.875,31.346,69.875,69.875   c0,7.717-6.257,13.975-13.975,13.975c-7.718,0-13.975-6.258-13.975-13.975c0-23.118-18.808-41.925-41.925-41.925   c-34.914,0-41.804,42.198-42.079,43.994c-0.041,0.27-0.099,0.593-0.157,0.859L27.995,330.093c-0.112,0.521,0.001,0.998,0.338,1.413   c0.335,0.416,0.777,0.626,1.311,0.626h22.028c7.718,0,13.975,6.258,13.975,13.975C65.646,353.824,59.388,360.083,51.67,360.083z"
   id="path4" />
	<path
   style="fill:#ffbd4a;fill-opacity:1"
   d="M482.356,360.083h-22.028c-7.717,0-13.975-6.258-13.975-13.975c0-7.717,6.258-13.975,13.975-13.975   h22.028c0.534,0,0.975-0.21,1.311-0.626c0.335-0.415,0.449-0.892,0.337-1.413l-37.867-176.708   c-0.064-0.303-0.119-0.607-0.164-0.911c-0.267-1.744-7.157-43.942-42.071-43.942c-23.118,0-41.925,18.808-41.925,41.925   c0,7.717-6.258,13.975-13.975,13.975c-7.717,0-13.975-6.258-13.975-13.975c0-38.529,31.346-69.875,69.875-69.875   c47.005,0,66.046,43.784,69.657,67.375l37.775,176.28c1.885,8.793-0.277,17.848-5.931,24.841   C499.749,356.072,491.349,360.083,482.356,360.083z"
   id="path6" />
</g>
<path
   style="fill:#ffd58b;fill-opacity:1"
   d="M178.856,417.446H81.592c-25.766,0-46.653-20.887-46.653-46.653v-74.395  c0-25.766,20.887-46.653,46.653-46.653h97.264c25.766,0,46.653,20.887,46.653,46.653v74.395  C225.509,396.559,204.622,417.446,178.856,417.446z"
   id="path10" />
<g
   id="g16"
   style="fill:#ffbd4a;fill-opacity:1">
	<path
   style="fill:#ffbd4a;fill-opacity:1"
   d="M178.856,431.42H81.591c-33.43,0-60.628-27.198-60.628-60.628v-74.395   c0-33.43,27.197-60.628,60.628-60.628h97.265c33.43,0,60.628,27.198,60.628,60.628v74.395   C239.484,404.223,212.287,431.42,178.856,431.42z M81.591,263.719c-18.019,0-32.678,14.658-32.678,32.678v74.395   c0,18.02,14.658,32.678,32.678,32.678h97.265c18.019,0,32.678-14.659,32.678-32.678v-74.395c0-18.019-14.658-32.678-32.678-32.678   H81.591z"
   id="path12" />
	<path
   style="fill:#ffbd4a;fill-opacity:1"
   d="M80.264,354.558c-7.718,0-13.975-6.258-13.975-13.975v-33.978c0-13.392,10.895-24.287,24.286-24.287   h31.008c7.718,0,13.975,6.258,13.975,13.975c0,7.717-6.257,13.975-13.975,13.975H94.24v30.313   C94.24,348.301,87.983,354.558,80.264,354.558z"
   id="path14" />
</g>
<path
   style="fill:#ffd58b;fill-opacity:1"
   d="M430.408,417.446h-97.264c-25.766,0-46.653-20.887-46.653-46.653v-74.395  c0-25.766,20.887-46.653,46.653-46.653h97.264c25.766,0,46.653,20.887,46.653,46.653v74.395  C477.061,396.559,456.174,417.446,430.408,417.446z"
   id="path18" />
<g
   id="g24"
   style="fill:#ffbd4a;fill-opacity:1">
	<path
   style="fill:#ffbd4a;fill-opacity:1"
   d="M430.408,431.42h-97.264c-33.431,0-60.63-27.198-60.63-60.628v-74.395   c0-33.43,27.198-60.628,60.63-60.628h97.264c33.431,0,60.63,27.198,60.63,60.628v74.395   C491.036,404.223,463.839,431.42,430.408,431.42z M333.144,263.719c-18.019,0-32.679,14.658-32.679,32.678v74.395   c0,18.02,14.66,32.678,32.679,32.678h97.264c18.02,0,32.679-14.659,32.679-32.678v-74.395c0-18.019-14.66-32.678-32.679-32.678   H333.144z"
   id="path20" />
	<path
   style="fill:#ffbd4a;fill-opacity:1"
   d="M331.818,354.558c-7.717,0-13.975-6.258-13.975-13.975v-33.978   c0-13.392,10.895-24.287,24.286-24.287h31.008c7.717,0,13.975,6.258,13.975,13.975c0,7.717-6.258,13.975-13.975,13.975h-27.344   v30.313C345.793,348.301,339.535,354.558,331.818,354.558z"
   id="path22" />
</g>
<g
   id="g26">
</g>
<g
   id="g28">
</g>
<g
   id="g30">
</g>
<g
   id="g32">
</g>
<g
   id="g34">
</g>
<g
   id="g36">
</g>
<g
   id="g38">
</g>
<g
   id="g40">
</g>
<g
   id="g42">
</g>
<g
   id="g44">
</g>
<g
   id="g46">
</g>
<g
   id="g48">
</g>
<g
   id="g50">
</g>
<g
   id="g52">
</g>
<g
   id="g54">
</g>
</svg>