<?xml version="1.0" encoding="iso-8859-1"?>
<!-- Generator: Adobe Illustrator 19.0.0, SVG Export Plug-In . SVG Version: 6.00 Build 0)  -->
<svg version="1.1" id="Layer_1" xmlns="http://www.w3.org/2000/svg" xmlns:xlink="http://www.w3.org/1999/xlink" x="0px" y="0px"
	 viewBox="0 0 512 512" style="enable-background:new 0 0 512 512;" xml:space="preserve">
<g>
	<path style="fill:#11544F;" d="M85.745,151.338h-17.68c-23.787,0-43.138-19.352-43.138-43.138v-1.414
		c0-23.787,19.351-43.138,43.138-43.138h17.68c7.812,0,14.144,6.332,14.144,14.144s-6.332,14.144-14.144,14.144h-17.68
		c-8.189,0-14.851,6.662-14.851,14.851v1.414c0,8.189,6.662,14.851,14.851,14.851h17.68c7.812,0,14.144,6.332,14.144,14.144
		C99.889,145.006,93.555,151.338,85.745,151.338z"/>
	<path style="fill:#11544F;" d="M85.745,298.432h-17.68c-23.787,0-43.138-19.352-43.138-43.138s19.351-43.138,43.138-43.138h17.68
		c7.812,0,14.144,6.332,14.144,14.144s-6.332,14.144-14.144,14.144h-17.68c-8.189,0-14.851,6.662-14.851,14.851
		c0,8.189,6.662,14.851,14.851,14.851h17.68c7.812,0,14.144,6.332,14.144,14.144C99.889,292.1,93.555,298.432,85.745,298.432z"/>
	<path style="fill:#11544F;" d="M85.745,446.939h-17.68c-23.787,0-43.138-19.352-43.138-43.138v-1.414
		c0-23.787,19.351-43.138,43.138-43.138h17.68c7.812,0,14.144,6.332,14.144,14.144s-6.332,14.144-14.144,14.144h-17.68
		c-8.189,0-14.851,6.662-14.851,14.851v1.414c0,8.189,6.662,14.851,14.851,14.851h17.68c7.812,0,14.144,6.332,14.144,14.144
		S93.555,446.939,85.745,446.939z"/>
	<path style="fill:#11544F;" d="M416.211,512H143.524c-39.074,0-70.863-31.788-70.863-70.862V70.862
		C72.662,31.788,104.45,0,143.524,0h272.688c39.074,0,70.862,31.788,70.862,70.862v370.277C487.074,480.212,455.285,512,416.211,512
		z M143.524,28.288c-23.476,0-42.576,19.098-42.576,42.574v370.277c0,23.476,19.098,42.574,42.576,42.574h272.688
		c23.476,0,42.574-19.098,42.574-42.574V70.862c0.001-23.476-19.098-42.574-42.574-42.574H143.524z"/>
</g>
<path style="fill:#6AB797;" d="M224,214.275h-53.746c-16.014,0-28.995-12.981-28.995-28.995v-39.603
	c0-16.014,12.981-28.995,28.995-28.995H224c16.014,0,28.995,12.981,28.995,28.995v39.603
	C252.995,201.294,240.013,214.275,224,214.275z"/>
<path style="fill:#11544F;" d="M224,228.419h-53.746c-23.787,0-43.138-19.352-43.138-43.138v-39.603
	c0-23.787,19.352-43.138,43.138-43.138H224c23.787,0,43.138,19.351,43.138,43.138v39.603
	C267.139,209.067,247.786,228.419,224,228.419z M170.254,130.827c-8.189,0-14.851,6.662-14.851,14.851v39.603
	c0,8.189,6.662,14.851,14.851,14.851H224c8.189,0,14.851-6.662,14.851-14.851v-39.603c0-8.189-6.662-14.851-14.851-14.851H170.254z"
	/>
<path style="fill:#6AB797;" d="M389.482,214.275h-55.161c-16.014,0-28.995-12.981-28.995-28.995v-39.603
	c0-16.014,12.981-28.995,28.995-28.995h55.161c16.014,0,28.995,12.981,28.995,28.995v39.603
	C418.477,201.294,405.495,214.275,389.482,214.275z"/>
<path style="fill:#11544F;" d="M389.482,228.419h-55.161c-23.787,0-43.138-19.352-43.138-43.138v-39.603
	c0-23.787,19.352-43.138,43.138-43.138h55.161c23.787,0,43.138,19.351,43.138,43.138v39.603
	C432.621,209.067,413.268,228.419,389.482,228.419z M334.322,130.827c-8.189,0-14.851,6.662-14.851,14.851v39.603
	c0,8.189,6.662,14.851,14.851,14.851h55.161c8.189,0,14.851-6.662,14.851-14.851v-39.603c0-8.189-6.662-14.851-14.851-14.851
	H334.322z"/>
<path style="fill:#6AB797;" d="M224,395.317h-53.746c-16.014,0-28.995-12.981-28.995-28.995v-38.188
	c0-16.014,12.981-28.995,28.995-28.995H224c16.014,0,28.995,12.981,28.995,28.995v38.188
	C252.995,382.336,240.013,395.317,224,395.317z"/>
<path style="fill:#11544F;" d="M224,409.461h-53.746c-23.787,0-43.138-19.352-43.138-43.138v-38.188
	c0-23.787,19.352-43.138,43.138-43.138H224c23.787,0,43.138,19.352,43.138,43.138v38.188
	C267.139,390.109,247.786,409.461,224,409.461z M170.254,313.283c-8.189,0-14.851,6.662-14.851,14.851v38.188
	c0,8.189,6.662,14.851,14.851,14.851H224c8.189,0,14.851-6.662,14.851-14.851v-38.188c0-8.189-6.662-14.851-14.851-14.851H170.254z"
	/>
<path style="fill:#6AB797;" d="M389.482,395.317h-55.161c-16.014,0-28.995-12.981-28.995-28.995v-38.188
	c0-16.014,12.981-28.995,28.995-28.995h55.161c16.014,0,28.995,12.981,28.995,28.995v38.188
	C418.477,382.336,405.495,395.317,389.482,395.317z"/>
<path style="fill:#11544F;" d="M389.482,409.461h-55.161c-23.787,0-43.138-19.352-43.138-43.138v-38.188
	c0-23.787,19.352-43.138,43.138-43.138h55.161c23.787,0,43.138,19.352,43.138,43.138v38.188
	C432.621,390.109,413.268,409.461,389.482,409.461z M334.322,313.283c-8.189,0-14.851,6.662-14.851,14.851v38.188
	c0,8.189,6.662,14.851,14.851,14.851h55.161c8.189,0,14.851-6.662,14.851-14.851v-38.188c0-8.189-6.662-14.851-14.851-14.851
	H334.322z"/>
<g>
</g>
<g>
</g>
<g>
</g>
<g>
</g>
<g>
</g>
<g>
</g>
<g>
</g>
<g>
</g>
<g>
</g>
<g>
</g>
<g>
</g>
<g>
</g>
<g>
</g>
<g>
</g>
<g>
</g>
</svg>
