<?xml version="1.0" encoding="iso-8859-1"?>
<!-- Generator: Adobe Illustrator 19.0.0, SVG Export Plug-In . SVG Version: 6.00 Build 0)  -->
<svg version="1.1" id="Layer_1" xmlns="http://www.w3.org/2000/svg" xmlns:xlink="http://www.w3.org/1999/xlink" x="0px" y="0px"
	 viewBox="0 0 511.999 511.999" style="enable-background:new 0 0 511.999 511.999;" xml:space="preserve">
<path style="fill:#11544F;" d="M221.598,410.862c-4.268,0-8.363-1.696-11.38-4.714L105.961,301.891
	c-6.285-6.285-6.285-16.476,0-22.762L367.274,17.816C378.712,6.379,393.921,0.08,410.098,0.08c16.175,0,31.384,6.299,42.82,17.737
	l41.374,41.372c23.61,23.613,23.61,62.034,0,85.646L232.979,406.148C229.961,409.165,225.867,410.862,221.598,410.862z
	 M140.102,290.51l81.496,81.496l249.932-249.932c11.062-11.062,11.062-29.063,0-40.126l-41.372-41.37
	c-5.358-5.358-12.484-8.309-20.061-8.309c-7.579,0-14.705,2.952-20.065,8.309L140.102,290.51z"/>
<path style="fill:#6AB797;" d="M54.326,302.742c26.319-4.02,79.913-34.43,89.587-40.355l105.739,105.739
	c-6.072,9.415-37.065,61.467-40.321,89.619c-0.478,4.138-6.484,7.96-10.44,9.273c0,0-126.673-2.112-169.049,28.646
	c-2.35,1.706-15.116-10.823-13.641-13.361c26.972-46.443,28.854-169.123,28.854-169.123
	C46.364,309.226,50.206,303.371,54.326,302.742z"/>
<g>
	<path style="fill:#11544F;" d="M29.275,511.919c-14.279,0-26.312-18.908-26.422-19.099c-5.11-8.878-2.102-15.962-0.571-18.599
		c20.37-35.074,26.164-128.318,26.679-161.289c0.026-1.638,0.301-3.264,0.818-4.819c2.324-7.006,9.597-19.371,22.122-21.283
		c21.367-3.264,69.445-29.496,83.61-38.171c6.344-3.885,14.523-2.915,19.785,2.345l105.738,105.739
		c5.361,5.361,6.254,13.733,2.145,20.103c-9.204,14.269-35.274,60.387-37.858,82.744c-1.482,12.817-14.123,20.3-21.359,22.699
		c-1.719,0.57-3.533,0.835-5.334,0.818c-0.074-0.002-1.819-0.031-4.899-0.031c-54.963,0-128.389,6.708-154.431,25.609
		C36.384,510.804,32.921,511.919,29.275,511.919z M61.045,317.853c-0.557,20.49-3.954,104.706-22.775,154.893
		c45.233-19.508,121.534-21.853,155.454-21.853c0.132,0,0.261,0,0.388,0.002c4.897-25.892,24.676-62.177,35.258-80.288
		l-88.122-88.121C122.865,292.799,85.637,312.529,61.045,317.853z"/>
	<path style="fill:#11544F;" d="M441.84,184.977c-4.12,0-8.237-1.572-11.38-4.714l-51.061-51.059
		c-6.285-6.285-6.285-16.476,0-22.762c6.286-6.283,16.474-6.283,22.762,0l51.061,51.059c6.285,6.285,6.285,16.476,0,22.762
		C450.077,183.405,445.959,184.977,441.84,184.977z"/>
	<path style="fill:#11544F;" d="M31.012,497.191c-4.119,0-8.237-1.572-11.38-4.714c-6.285-6.285-6.285-16.476,0-22.762
		l88.356-88.356c6.285-6.283,16.476-6.283,22.76,0c6.285,6.285,6.286,16.476,0,22.762l-88.356,88.356
		C39.251,495.619,35.13,497.191,31.012,497.191z"/>
</g>
<g>
</g>
<g>
</g>
<g>
</g>
<g>
</g>
<g>
</g>
<g>
</g>
<g>
</g>
<g>
</g>
<g>
</g>
<g>
</g>
<g>
</g>
<g>
</g>
<g>
</g>
<g>
</g>
<g>
</g>
</svg>
